HIERARCHY
ROOT root
{
  OFFSET 0 95.9893 0
  CHANNELS 6 Xposition Yposition Zposition Zrotation Xrotation Yrotation
  JOINT torso_1
  {
    OFFSET 0 5.22546 -1.18466
    CHANNELS 6 Xposition Yposition Zposition Zrotation Xrotation Yrotation
    JOINT torso_2
    {
      OFFSET 0 5.77894 1.10239
      CHANNELS 6 Xposition Yposition Zposition Zrotation Xrotation Yrotation
      JOINT torso_3
      {
        OFFSET -1.0557e-17 6.16289 0.118334
        CHANNELS 6 Xposition Yposition Zposition Zrotation Xrotation Yrotation
        JOINT torso_4
        {
          OFFSET -1.13649e-17 6.69386 -0.456341
          CHANNELS 6 Xposition Yposition Zposition Zrotation Xrotation Yrotation
          JOINT torso_5
          {
            OFFSET -2.02997e-17 7.82529 -1.54945
            CHANNELS 6 Xposition Yposition Zposition Zrotation Xrotation Yrotation
            JOINT torso_6
            {
              OFFSET -2.60628e-17 9.77186 -0.940923
              CHANNELS 6 Xposition Yposition Zposition Zrotation Xrotation Yrotation
              JOINT torso_7
              {
                OFFSET -2.98794e-17 10.8563 1.62248
                CHANNELS 6 Xposition Yposition Zposition Zrotation Xrotation Yrotation
                JOINT neck_1
                {
                  OFFSET -1.32927e-17 4.92478 0.736013
                  CHANNELS 6 Xposition Yposition Zposition Zrotation Xrotation Yrotation
                  JOINT neck_2
                  {
                    OFFSET -1.86396e-17 4.96043 0.433981
                    CHANNELS 6 Xposition Yposition Zposition Zrotation Xrotation Yrotation
                    JOINT head
                    {
                      OFFSET -2.06766e-17 4.97002 0.787173
                      CHANNELS 6 Xposition Yposition Zposition Zrotation Xrotation Yrotation
                      End Site
                      {
                        OFFSET 0 0.1 0
                      }
                    }
                  }
                }
                JOINT l_shoulder
                {
                  OFFSET 1.26863 -7.82717 7.75148
                  CHANNELS 6 Xposition Yposition Zposition Zrotation Xrotation Yrotation
                  JOINT l_up_arm
                  {
                    OFFSET 13.3291 3.34342 -3.36319
                    CHANNELS 6 Xposition Yposition Zposition Zrotation Xrotation Yrotation
                    JOINT l_low_arm
                    {
                      OFFSET 30.0522 0.0615366 0.141
                      CHANNELS 6 Xposition Yposition Zposition Zrotation Xrotation Yrotation
                      JOINT l_hand
                      {
                        OFFSET 24.9344 0.0510561 0.116988
                        CHANNELS 6 Xposition Yposition Zposition Zrotation Xrotation Yrotation
                        End Site
                        {
                          OFFSET 0.1 0 0
                        }
                      }
                    }
                  }
                }
                JOINT r_shoulder
                {
                  OFFSET -1.26863 -7.82715 7.75138
                  CHANNELS 6 Xposition Yposition Zposition Zrotation Xrotation Yrotation
                  JOINT r_up_arm
                  {
                    OFFSET -13.3291 3.34342 -3.36319
                    CHANNELS 6 Xposition Yposition Zposition Zrotation Xrotation Yrotation
                    JOINT r_low_arm
                    {
                      OFFSET -30.0522 0.0615366 0.141
                      CHANNELS 6 Xposition Yposition Zposition Zrotation Xrotation Yrotation
                      JOINT r_hand
                      {
                        OFFSET -24.9344 0.0510559 0.116988
                        CHANNELS 6 Xposition Yposition Zposition Zrotation Xrotation Yrotation
                        End Site
                        {
                          OFFSET -0.1 0 0
                        }
                      }
                    }
                  }
                }
              }
            }
          }
        }
      }
    }
  }
  JOINT l_up_leg
  {
    OFFSET 9.50369 -4.32711 2.09145
    CHANNELS 6 Xposition Yposition Zposition Zrotation Xrotation Yrotation
    JOINT l_low_leg
    {
      OFFSET -0.876987 -39.8926 -0.674123
      CHANNELS 6 Xposition Yposition Zposition Zrotation Xrotation Yrotation
      JOINT l_foot
      {
        OFFSET -2.39345 -41.5694 -6.22357
        CHANNELS 6 Xposition Yposition Zposition Zrotation Xrotation Yrotation
        JOINT l_toes
        {
          OFFSET 0.801613 -10.1701 12.8571
          CHANNELS 6 Xposition Yposition Zposition Zrotation Xrotation Yrotation
          End Site
          {
            OFFSET 0 0 0.1
          }
        }
      }
    }
  }
  JOINT r_up_leg
  {
    OFFSET -9.50369 -4.32711 2.09145
    CHANNELS 6 Xposition Yposition Zposition Zrotation Xrotation Yrotation
    JOINT r_low_leg
    {
      OFFSET 0.876987 -39.8926 -0.674123
      CHANNELS 6 Xposition Yposition Zposition Zrotation Xrotation Yrotation
      JOINT r_foot
      {
        OFFSET 2.39345 -41.5694 -6.22357
        CHANNELS 6 Xposition Yposition Zposition Zrotation Xrotation Yrotation
        JOINT r_toes
        {
          OFFSET -0.801613 -10.1701 12.8571
          CHANNELS 6 Xposition Yposition Zposition Zrotation Xrotation Yrotation
          End Site
          {
            OFFSET 0 0 0.1
          }
        }
      }
    }
  }
}
MOTION
Frames: 8
Frame Time: 0.02
10.0449 98.4527 -56.3995 1.53495 2.50738 -2.00076 0 5.22546 -1.18466 0.276122 -0.0243852 0.759417 0 5.77894 1.10239 -0.0338892 0.293312 0.67667 -1.0557e-17 6.16289 0.118334 -0.12719 0.692341 0.721327 -1.13649e-17 6.69386 -0.456341 -0.314969 1.36934 0.710647 -2.02997e-17 7.82529 -1.54945 -0.247672 1.12001 0.70212 -2.60628e-17 9.77186 -0.940923 -0.131054 0.753685 0.70707 -2.98794e-17 10.8563 1.62248 -0.0271355 0.0523335 -0.0067156 -1.32927e-17 4.92478 0.736013 -2.16739 -0.408728 -5.92732 -1.86396e-17 4.96043 0.433981 -1.78685 -6.58408 -2.99178 -2.06766e-17 4.97002 0.787173 -2.05306 -4.75297 0.628601 1.26863 -7.82717 7.75148 11.0189 -4.74321 1.1672 13.3291 3.34342 -3.36319 -35.8583 -55.5629 -11.9982 30.0522 0.0615366 0.141 6.35782 -1.80199 -32.2133 24.9344 0.0510561 0.116988 -2.68056 -30.8128 -4.2838 -1.26863 -7.82715 7.75138 -12.1109 -2.1938 0.273095 -13.3291 3.34342 -3.36319 26.9829 -53.3749 3.46577 -30.0522 0.0615366 0.141 -6.35173 -1.7982 32.1787 -24.9344 0.0510559 0.116988 4.83145 -48.7512 4.19677 9.50369 -4.32711 2.09145 2.49495 -6.2337 -25.158 -0.876987 -39.8926 -0.674123 -0.527468 1.9698 -0.0253164 -2.39345 -41.5694 -6.22357 -7.13138 10.3942 16.8429 0.801613 -10.1701 12.8571 2.83268e-15 -6.70898e-16 -1.11816e-16 -9.50369 -4.32711 2.09145 -5.44829 -5.46201 20.8169 0.876987 -39.8926 -0.674123 0.566086 2.11407 0.0264588 2.39345 -41.5694 -6.22357 4.89541 8.39513 -15.896 -0.801613 -10.1701 12.8571 5.96354e-16 -6.21202e-16 -1.27968e-14 
10.0479 98.4225 -56.5453 1.53526 2.62033 -2.1267 0 5.22546 -1.18466 0.252711 -0.0190864 0.759739 0 5.77894 1.10239 -0.0580323 0.295207 0.677243 -1.0557e-17 6.16289 0.118334 -0.148693 0.687123 0.722577 -1.13649e-17 6.69386 -0.456341 -0.334226 1.35873 0.71201 -2.02997e-17 7.82529 -1.54945 -0.258746 1.11729 0.708498 -2.60628e-17 9.77186 -0.940923 -0.133631 0.757521 0.713351 -2.98794e-17 10.8563 1.62248 -0.027078 0.0533485 -0.00587886 -1.32927e-17 4.92478 0.736013 -2.19798 -0.623699 -5.89283 -1.86396e-17 4.96043 0.433981 -1.75614 -6.53236 -2.98124 -2.06766e-17 4.97002 0.787173 -2.07094 -4.51321 0.535394 1.26863 -7.82717 7.75148 10.7136 -4.5478 1.15505 13.3291 3.34342 -3.36319 -33.9112 -54.7367 -9.51638 30.0522 0.0615366 0.141 6.288 -1.75885 -31.82 24.9344 0.0510561 0.116988 -2.51752 -30.9769 -4.175 -1.26863 -7.82715 7.75138 -11.6663 -2.03088 0.335878 -13.3291 3.34342 -3.36319 25.8987 -52.979 1.5467 -30.0522 0.0615366 0.141 -6.37712 -1.81403 32.3221 -24.9344 0.0510559 0.116988 5.10626 -49.1831 3.8946 9.50369 -4.32711 2.09145 2.461 -6.40894 -25.0275 -0.876987 -39.8926 -0.674123 -0.525751 1.96338 -0.0252633 -2.39345 -41.5694 -6.22357 -7.04864 10.3174 16.8013 0.801613 -10.1701 12.8571 -3.47873e-16 -8.07563e-16 2.48481e-17 -9.50369 -4.32711 2.09145 -5.39963 -5.61129 20.7915 0.876987 -39.8926 -0.674123 0.54082 2.01968 0.0257227 2.39345 -41.5694 -6.22357 4.87939 8.31668 -15.8899 -0.801613 -10.1701 12.8571 -3.37934e-15 -4.47266e-16 -1.26228e-14 
10.0532 98.4089 -56.6542 1.5527 2.62544 -2.26833 0 5.22546 -1.18466 0.230704 -0.000858748 0.75927 0 5.77894 1.10239 -0.0822323 0.315142 0.675606 -1.0557e-17 6.16289 0.118334 -0.170818 0.708098 0.720748 -1.13649e-17 6.69386 -0.456341 -0.354406 1.38476 0.710097 -2.02997e-17 7.82529 -1.54945 -0.273537 1.15353 0.711818 -2.60628e-17 9.77186 -0.940923 -0.142428 0.805688 0.717346 -2.98794e-17 10.8563 1.62248 -0.027212 0.0540835 -0.00573188 -1.32927e-17 4.92478 0.736013 -2.21635 -0.729932 -5.87313 -1.86396e-17 4.96043 0.433981 -1.73329 -6.52361 -2.97654 -2.06766e-17 4.97002 0.787173 -2.08075 -4.4091 0.394792 1.26863 -7.82717 7.75148 10.3729 -4.42694 1.14003 13.3291 3.34342 -3.36319 -32.6822 -54.2418 -7.659 30.0522 0.0615366 0.141 6.2316 -1.72448 -31.5034 24.9344 0.0510561 0.116988 -2.33479 -30.3831 -4.07774 -1.26863 -7.82715 7.75138 -11.2357 -1.93367 0.363643 -13.3291 3.34342 -3.36319 25.2697 -52.6006 0.0917969 -30.0522 0.0615366 0.141 -6.38933 -1.82167 32.3911 -24.9344 0.0510559 0.116988 5.18261 -49.2258 3.52919 9.50369 -4.32711 2.09145 2.40639 -6.42421 -24.8756 -0.876987 -39.8926 -0.674123 -0.50733 1.89456 -0.0246823 -2.39345 -41.5694 -6.22357 -6.97071 10.3435 16.7631 0.801613 -10.1701 12.8571 -7.45443e-16 -8.32411e-16 4.96962e-17 -9.50369 -4.32711 2.09145 -5.36996 -5.61469 20.892 0.876987 -39.8926 -0.674123 0.504202 1.88288 0.0245819 2.39345 -41.5694 -6.22357 4.84934 8.313 -15.881 -0.801613 -10.1701 12.8571 -1.78906e-15 -5.09386e-16 -1.26974e-14 
10.0492 98.395 -56.7435 1.54235 2.5971 -2.41507 0 5.22546 -1.18466 0.211164 0.0567209 0.767622 0 5.77894 1.10239 -0.105545 0.364745 0.682995 -1.0557e-17 6.16289 0.118334 -0.192509 0.750234 0.728753 -1.13649e-17 6.69386 -0.456341 -0.374961 1.41649 0.718703 -2.02997e-17 7.82529 -1.54945 -0.288 1.1846 0.724512 -2.60628e-17 9.77186 -0.940923 -0.148684 0.841563 0.729671 -2.98794e-17 10.8563 1.62248 -0.0272678 0.0548914 -0.00559694 -1.32927e-17 4.92478 0.736013 -2.24609 -0.766352 -5.96882 -1.86396e-17 4.96043 0.433981 -1.72013 -6.56406 -3.02427 -2.06766e-17 4.97002 0.787173 -2.05765 -4.45132 0.380529 1.26863 -7.82717 7.75148 10.0815 -4.32932 1.14424 13.3291 3.34342 -3.36319 -31.9615 -53.8276 -6.16936 30.0522 0.0615366 0.141 6.21692 -1.71561 -31.4212 24.9344 0.0510561 0.116988 -2.2243 -29.6035 -3.94396 -1.26863 -7.82715 7.75138 -10.833 -1.84897 0.38245 -13.3291 3.34342 -3.36319 24.974 -52.4199 -1.08499 -30.0522 0.0615366 0.141 -6.38594 -1.81955 32.3719 -24.9344 0.0510559 0.116988 5.01115 -48.6078 3.05829 9.50369 -4.32711 2.09145 2.38582 -6.38004 -24.7478 -0.876987 -39.8926 -0.674123 -0.485544 1.81317 -0.0239666 -2.39345 -41.5694 -6.22357 -6.88854 10.3402 16.7281 0.801613 -10.1701 12.8571 2.03754e-15 -7.0817e-16 -7.45443e-17 -9.50369 -4.32711 2.09145 -5.30291 -5.56691 21.0681 0.876987 -39.8926 -0.674123 0.465164 1.73704 0.0232695 2.39345 -41.5694 -6.22357 4.80063 8.3289 -15.8701 -0.801613 -10.1701 12.8571 -3.37934e-15 -4.47266e-16 -1.26228e-14 
10.025 98.3623 -56.8266 1.50629 2.53818 -2.53694 0 5.22546 -1.18466 0.182099 0.15266 0.782885 0 5.77894 1.10239 -0.135584 0.438505 0.696679 -1.0557e-17 6.16289 0.118334 -0.218341 0.80243 0.744349 -1.13649e-17 6.69386 -0.456341 -0.396681 1.43637 0.735631 -2.02997e-17 7.82529 -1.54945 -0.299185 1.19016 0.744717 -2.60628e-17 9.77186 -0.940923 -0.146709 0.842138 0.748501 -2.98794e-17 10.8563 1.62248 -0.0269658 0.0561077 -0.00502534 -1.32927e-17 4.92478 0.736013 -2.27395 -0.74678 -6.12364 -1.86396e-17 4.96043 0.433981 -1.69856 -6.60285 -3.09874 -2.06766e-17 4.97002 0.787173 -2.03409 -4.58134 0.484411 1.26863 -7.82717 7.75148 9.86993 -4.21275 1.19796 13.3291 3.34342 -3.36319 -31.3203 -53.0519 -4.73456 30.0522 0.0615366 0.141 6.22108 -1.71812 -31.4446 24.9344 0.0510561 0.116988 -2.22451 -29.4082 -3.81906 -1.26863 -7.82715 7.75138 -10.4801 -1.7575 0.384516 -13.3291 3.34342 -3.36319 24.8081 -52.3106 -2.21356 -30.0522 0.0615366 0.141 -6.37911 -1.81527 32.3333 -24.9344 0.0510559 0.116988 4.88689 -47.8148 2.68921 9.50369 -4.32711 2.09145 2.40096 -6.30291 -24.6804 -0.876987 -39.8926 -0.674123 -0.47115 1.7594 -0.0234767 -2.39345 -41.5694 -6.22357 -6.7948 10.2238 16.6955 0.801613 -10.1701 12.8571 -3.13086e-15 -9.31803e-16 1.49089e-16 -9.50369 -4.32711 2.09145 -5.19964 -5.48373 21.1488 0.876987 -39.8926 -0.674123 0.433837 1.62001 0.0221446 2.39345 -41.5694 -6.22357 4.71995 8.27622 -15.852 -0.801613 -10.1701 12.8571 1.39149e-15 -6.4605e-16 -1.2834e-14 
9.99559 98.2995 -56.8964 1.43014 2.47462 -2.66411 0 5.22546 -1.18466 0.158 0.269899 0.793785 0 5.77894 1.10239 -0.159931 0.524224 0.705357 -1.0557e-17 6.16289 0.118334 -0.238328 0.855367 0.754943 -1.13649e-17 6.69386 -0.456341 -0.411948 1.43914 0.747643 -2.02997e-17 7.82529 -1.54945 -0.30581 1.16848 0.759243 -2.60628e-17 9.77186 -0.940923 -0.142774 0.810633 0.761763 -2.98794e-17 10.8563 1.62248 -0.0265415 0.0579559 -0.00441474 -1.32927e-17 4.92478 0.736013 -2.27893 -0.679513 -6.18031 -1.86396e-17 4.96043 0.433981 -1.66519 -6.6152 -3.12798 -2.06766e-17 4.97002 0.787173 -2.02334 -4.69452 0.544752 1.26863 -7.82717 7.75148 9.72223 -4.09035 1.29522 13.3291 3.34342 -3.36319 -30.7934 -52.1377 -3.29646 30.0522 0.0615366 0.141 6.2294 -1.72315 -31.4911 24.9344 0.0510561 0.116988 -2.31226 -29.4053 -3.73821 -1.26863 -7.82715 7.75138 -10.1966 -1.66714 0.323109 -13.3291 3.34342 -3.36319 24.7656 -51.9513 -3.30777 -30.0522 0.0615366 0.141 -6.38905 -1.8215 32.3895 -24.9344 0.0510559 0.116988 5.11984 -47.4542 2.60671 9.50369 -4.32711 2.09145 2.46517 -6.19561 -24.6304 -0.876987 -39.8926 -0.674123 -0.461708 1.72413 -0.0231481 -2.39345 -41.5694 -6.22357 -6.65346 9.91943 16.6531 0.801613 -10.1701 12.8571 2.03754e-15 -7.0817e-16 -7.45443e-17 -9.50369 -4.32711 2.09145 -5.05809 -5.37731 21.1854 0.876987 -39.8926 -0.674123 0.405118 1.51272 0.0210571 2.39345 -41.5694 -6.22357 4.62006 8.10715 -15.8288 -0.801613 -10.1701 12.8571 -5.96354e-16 -5.59082e-16 -1.27471e-14 
9.97957 98.2001 -56.9394 1.37024 2.47491 -2.77593 0 5.22546 -1.18466 0.139484 0.362251 0.794641 0 5.77894 1.10239 -0.177805 0.58897 0.703118 -1.0557e-17 6.16289 0.118334 -0.252078 0.888313 0.753661 -1.13649e-17 6.69386 -0.456341 -0.420703 1.42253 0.746908 -2.02997e-17 7.82529 -1.54945 -0.309563 1.13003 0.760813 -2.60628e-17 9.77186 -0.940923 -0.140889 0.764612 0.762674 -2.98794e-17 10.8563 1.62248 -0.0263011 0.0600914 -0.00400167 -1.32927e-17 4.92478 0.736013 -2.28084 -0.572113 -6.26638 -1.86396e-17 4.96043 0.433981 -1.63416 -6.5752 -3.16884 -2.06766e-17 4.97002 0.787173 -1.98571 -4.78766 0.658366 1.26863 -7.82717 7.75148 9.59722 -3.96547 1.40366 13.3291 3.34342 -3.36319 -30.4724 -51.2515 -1.89989 30.0522 0.0615366 0.141 6.26048 -1.74203 -31.6655 24.9344 0.0510561 0.116988 -2.40392 -29.094 -3.67657 -1.26863 -7.82715 7.75138 -9.97162 -1.579 0.201201 -13.3291 3.34342 -3.36319 24.902 -51.3011 -4.29522 -30.0522 0.0615366 0.141 -6.42517 -1.84423 32.594 -24.9344 0.0510559 0.116988 5.45636 -47.2895 2.70372 9.50369 -4.32711 2.09145 2.50977 -6.12119 -24.5966 -0.876987 -39.8926 -0.674123 -0.455027 1.69917 -0.022912 -2.39345 -41.5694 -6.22357 -6.44891 9.43513 16.5926 0.801613 -10.1701 12.8571 4.96962e-17 -7.95139e-16 1.2424e-17 -9.50369 -4.32711 2.09145 -4.94286 -5.29481 21.2353 0.876987 -39.8926 -0.674123 0.376816 1.407 0.0199329 2.39345 -41.5694 -6.22357 4.46606 7.74682 -15.8014 -0.801613 -10.1701 12.8571 -9.93923e-16 -5.46658e-16 -1.27222e-14 
9.9705 98.0902 -56.9713 1.34264 2.50973 -2.83407 0 5.22546 -1.18466 0.11952 0.425986 0.790555 0 5.77894 1.10239 -0.194954 0.629029 0.695588 -1.0557e-17 6.16289 0.118334 -0.26437 0.897831 0.74587 -1.13649e-17 6.69386 -0.456341 -0.427082 1.3844 0.738679 -2.02997e-17 7.82529 -1.54945 -0.311477 1.07425 0.754825 -2.60628e-17 9.77186 -0.940923 -0.138733 0.703262 0.756718 -2.98794e-17 10.8563 1.62248 -0.0261662 0.0623771 -0.00360916 -1.32927e-17 4.92478 0.736013 -2.28523 -0.49307 -6.3701 -1.86396e-17 4.96043 0.433981 -1.61545 -6.49652 -3.2167 -2.06766e-17 4.97002 0.787173 -1.97219 -4.80477 0.767239 1.26863 -7.82717 7.75148 9.47884 -3.82043 1.49013 13.3291 3.34342 -3.36319 -30.244 -50.2896 -0.623584 30.0522 0.0615366 0.141 6.30328 -1.76823 -31.906 24.9344 0.0510561 0.116988 -2.45253 -28.5948 -3.57442 -1.26863 -7.82715 7.75138 -9.79546 -1.47728 0.0905989 -13.3291 3.34342 -3.36319 25.1274 -50.5188 -5.11927 -30.0522 0.0615366 0.141 -6.45447 -1.8628 32.7602 -24.9344 0.0510559 0.116988 5.58533 -46.9179 2.70612 9.50369 -4.32711 2.09145 2.5113 -6.09909 -24.5927 -0.876987 -39.8926 -0.674123 -0.455248 1.69999 -0.0229199 -2.39345 -41.5694 -6.22357 -6.23899 8.92857 16.5283 0.801613 -10.1701 12.8571 -1.14301e-15 -8.44835e-16 6.21202e-17 -9.50369 -4.32711 2.09145 -4.86931 -5.24331 21.2706 0.876987 -39.8926 -0.674123 0.355742 1.32827 0.0190619 2.39345 -41.5694 -6.22357 4.30602 7.30748 -15.7771 -0.801613 -10.1701 12.8571 -1.39149e-15 -5.34234e-16 -1.27098e-14 
